<svg xmlns="http://www.w3.org/2000/svg" xmlns:xlink="http://www.w3.org/1999/xlink" width="500" height="500" version="1.2" viewBox="0 0 375 375"><defs><clipPath id="clip1"><path d="M 4.363281 3.949219 L 371.03125 3.949219 L 371.03125 371.363281 L 4.363281 371.363281 Z M 4.363281 3.949219"/></clipPath></defs><g id="surface1"><g clip-path="url(#clip1)" clip-rule="nonzero"><path style="stroke:none;fill-rule:nonzero;fill:#ffbd59;fill-opacity:1" d="M 184.085938 42.847656 C 263.902344 40.863281 330.210938 103.914062 332.195312 183.734375 C 332.230469 185.132812 332.261719 186.53125 332.230469 187.933594 C 332.585938 267.78125 268.167969 332.757812 188.316406 333.113281 C 108.5 333.441406 43.492188 269.019531 43.167969 189.167969 C 43.167969 188.777344 43.167969 188.355469 43.167969 187.933594 C 42.839844 109.285156 105.472656 44.800781 184.085938 42.847656 Z M 182.945312 4.046875 C 83.335938 6.617188 4.007812 88.289062 4.363281 187.933594 C 4.300781 289.203125 86.363281 371.332031 187.601562 371.363281 C 288.871094 371.429688 370.964844 289.398438 371.03125 188.128906 C 371.03125 188.0625 371.03125 187.996094 371.03125 187.933594 C 371.355469 86.695312 289.585938 4.339844 188.316406 3.980469 C 186.527344 3.980469 184.769531 3.980469 182.945312 4.046875"/></g><path style="stroke:none;fill-rule:nonzero;fill:#ffbd59;fill-opacity:1" d="M 292.9375 142.425781 C 293.492188 165.308594 275.394531 184.285156 252.507812 184.839844 C 229.625 185.394531 210.648438 167.292969 210.0625 144.410156 C 209.539062 121.527344 227.640625 102.546875 250.492188 101.996094 C 256.058594 101.863281 261.558594 102.839844 266.734375 104.890625 C 220.867188 61.238281 148.277344 63.03125 104.625 108.894531 C 60.972656 154.792969 62.796875 227.351562 108.660156 271.003906 C 154.527344 314.65625 227.085938 312.867188 270.769531 266.96875 C 302.476562 233.667969 311.199219 184.644531 292.9375 142.425781"/></g></svg>